ffmpeg started on 2026-01-16 at 16:11:05
Report written to "D:\Convert\FFMetrics\reports\psnr_report-6.txt"
Log level: 32
Command line:
ffmpeg -hide_banner -nostdin -r 24000/1001 -i "F:\\Convert\\files\\[DC] Make Heroine ga Oosugiru - 07_Telegram_HEVC(HB-11).mkv" -r 24000/1001 -i "F:\\Convert\\files\\[DC] Make Heroine ga Oosugiru - 07_Telegram.mp4" -lavfi "[0:v]settb=AVTB,setpts=PTS-STARTPTS,format=pix_fmts=yuv420p10le,fps=24000/1001,scale=1920:1080:flags=lanczos:param0=3:out_range=limited:out_color_matrix=bt709:out_chroma_loc=left,setsar=1/1,setdar=(1920/1080)*(1/1),colorspace=format=yuv420p10:range=tv:primaries=bt709:trc=bt709:space=bt709:fast=0[main];[1:v]settb=AVTB,setpts=PTS-STARTPTS,format=pix_fmts=yuv420p,fps=24000/1001,scale=1920:1080:flags=lanczos:param0=3:out_range=limited:out_color_matrix=bt709:out_chroma_loc=left,setsar=1.000,setdar=1.778,colorspace=format=yuv420p:range=tv:primaries=bt709:trc=bt709:space=bt709:fast=0[ref];[main][ref]psnr=eof_action=endall:stats_file='D\\:/Convert/FFMetrics/logs/psnr_logfile-6.txt'" -f null -
Input #0, matroska,webm, from 'F:\Convert\files\[DC] Make Heroine ga Oosugiru - 07_Telegram_HEVC(HB-11).mkv':
  Metadata:
    creation_time   : 2026-01-16T09:38:21.000000Z
    ENCODER         : Lavf61.7.100
  Duration: 00:24:06.81, start: -0.021000, bitrate: 1008 kb/s
  Stream #0:0: Video: hevc (Main 10), yuv420p10le(tv, bt709), 1920x1080 [SAR 1:1 DAR 16:9], 23.98 fps, 23.98 tbr, 1k tbn (default)
      Metadata:
        BPS             : 843712
        DURATION        : 00:24:06.569708333
        NUMBER_OF_FRAMES: 34683
        NUMBER_OF_BYTES : 152560997
        _STATISTICS_WRITING_APP: mkvpropedit v94.0 ('Initiate') 64-bit
        _STATISTICS_WRITING_DATE_UTC: 2026-01-16 13:11:05
        _STATISTICS_TAGS: BPS DURATION NUMBER_OF_FRAMES NUMBER_OF_BYTES
  Stream #0:1: Audio: aac (LC), 48000 Hz, stereo, fltp (default)
      Metadata:
        title           : Stereo
        BPS             : 161191
        DURATION        : 00:24:06.784000000
        NUMBER_OF_FRAMES: 67819
        NUMBER_OF_BYTES : 29151109
        _STATISTICS_WRITING_APP: mkvpropedit v94.0 ('Initiate') 64-bit
        _STATISTICS_WRITING_DATE_UTC: 2026-01-16 13:11:05
        _STATISTICS_TAGS: BPS DURATION NUMBER_OF_FRAMES NUMBER_OF_BYTES
Input #1, mov,mp4,m4a,3gp,3g2,mj2, from 'F:\Convert\files\[DC] Make Heroine ga Oosugiru - 07_Telegram.mp4':
  Metadata:
    major_brand     : isom
    minor_version   : 512
    compatible_brands: isomiso2avc1mp41
    encoder         : Lavf60.16.100
  Duration: 00:24:06.74, start: 0.000000, bitrate: 3764 kb/s
  Stream #1:0[0x1](und): Video: h264 (High) (avc1 / 0x31637661), yuv420p(tv, bt709, progressive), 1920x1080 [SAR 1:1 DAR 16:9], 3616 kb/s, 23.98 fps, 23.98 tbr, 24k tbn (default)
      Metadata:
        handler_name    : VideoHandler
        vendor_id       : [0][0][0][0]
        encoder         : Lavc60.31.102 h264_qsv
  Stream #1:1[0x2](und): Audio: aac (HE-AACv2) (mp4a / 0x6134706D), 48000 Hz, stereo, fltp, 144 kb/s (default)
      Metadata:
        handler_name    : SoundHandler
        vendor_id       : [0][0][0][0]
Stream mapping:
  Stream #0:0 (hevc) -> settb:default
  Stream #1:0 (h264) -> settb:default
  psnr:default -> Stream #0:0 (wrapped_avframe)
  Stream #0:1 -> #0:1 (aac (native) -> pcm_s16le (native))
Output #0, null, to 'pipe:':
  Metadata:
    encoder         : Lavf61.7.100
  Stream #0:0: Video: wrapped_avframe, yuv420p10le(tv, bt709, progressive), 1920x1080 [SAR 1:1 DAR 16:9], q=2-31, 200 kb/s, 23.98 fps, 23.98 tbn
      Metadata:
        encoder         : Lavc61.19.100 wrapped_avframe
  Stream #0:1: Audio: pcm_s16le, 48000 Hz, stereo, s16, 1536 kb/s (default)
      Metadata:
        title           : Stereo
        BPS             : 161191
        DURATION        : 00:24:06.784000000
        NUMBER_OF_FRAMES: 67819
        NUMBER_OF_BYTES : 29151109
        _STATISTICS_WRITING_APP: mkvpropedit v94.0 ('Initiate') 64-bit
        _STATISTICS_WRITING_DATE_UTC: 2026-01-16 13:11:05
        _STATISTICS_TAGS: BPS DURATION NUMBER_OF_FRAMES NUMBER_OF_BYTES
        encoder         : Lavc61.19.100 pcm_s16le
frame=  122 fps=0.0 q=-0.0 size=N/A time=00:00:05.08 bitrate=N/A speed=10.1x    frame=  325 fps=315 q=-0.0 size=N/A time=00:00:13.55 bitrate=N/A speed=13.2x    frame=  519 fps=337 q=-0.0 size=N/A time=00:00:21.64 bitrate=N/A speed=  14x    frame=  720 fps=351 q=-0.0 size=N/A time=00:00:30.03 bitrate=N/A speed=14.6x    frame=  897 fps=350 q=-0.0 size=N/A time=00:00:37.41 bitrate=N/A speed=14.6x    frame= 1045 fps=338 q=-0.0 size=N/A time=00:00:43.58 bitrate=N/A speed=14.1x    frame= 1214 fps=337 q=-0.0 size=N/A time=00:00:50.63 bitrate=N/A speed=14.1x    frame= 1373 fps=334 q=-0.0 size=N/A time=00:00:57.26 bitrate=N/A speed=13.9x    frame= 1530 fps=331 q=-0.0 size=N/A time=00:01:03.81 bitrate=N/A speed=13.8x    frame= 1674 fps=325 q=-0.0 size=N/A time=00:01:09.81 bitrate=N/A speed=13.5x    frame= 1839 fps=325 q=-0.0 size=N/A time=00:01:16.70 bitrate=N/A speed=13.5x    frame= 1999 fps=324 q=-0.0 size=N/A time=00:01:23.37 bitrate=N/A speed=13.5x    frame= 2106 fps=315 q=-0.0 size=N/A time=00:01:27.83 bitrate=N/A speed=13.1x    frame= 2274 fps=315 q=-0.0 size=N/A time=00:01:34.84 bitrate=N/A speed=13.1x    frame= 2418 fps=313 q=-0.0 size=N/A time=00:01:40.85 bitrate=N/A speed=  13x    frame= 2548 fps=309 q=-0.0 size=N/A time=00:01:46.27 bitrate=N/A speed=12.9x    frame= 2722 fps=311 q=-0.0 size=N/A time=00:01:53.53 bitrate=N/A speed=  13x    frame= 2894 fps=312 q=-0.0 size=N/A time=00:02:00.70 bitrate=N/A speed=  13x    frame= 3080 fps=315 q=-0.0 size=N/A time=00:02:08.46 bitrate=N/A speed=13.1x    frame= 3277 fps=318 q=-0.0 size=N/A time=00:02:16.67 bitrate=N/A speed=13.3x    frame= 3471 fps=321 q=-0.0 size=N/A time=00:02:24.76 bitrate=N/A speed=13.4x    frame= 3671 fps=324 q=-0.0 size=N/A time=00:02:33.11 bitrate=N/A speed=13.5x    frame= 3874 fps=327 q=-0.0 size=N/A time=00:02:41.57 bitrate=N/A speed=13.6x    frame= 4072 fps=329 q=-0.0 size=N/A time=00:02:49.83 bitrate=N/A speed=13.7x    frame= 4270 fps=332 q=-0.0 size=N/A time=00:02:58.09 bitrate=N/A speed=13.8x    frame= 4475 fps=334 q=-0.0 size=N/A time=00:03:06.64 bitrate=N/A speed=13.9x    frame= 4671 fps=336 q=-0.0 size=N/A time=00:03:14.81 bitrate=N/A speed=  14x    frame= 4875 fps=338 q=-0.0 size=N/A time=00:03:23.32 bitrate=N/A speed=14.1x    frame= 5071 fps=339 q=-0.0 size=N/A time=00:03:31.50 bitrate=N/A speed=14.2x    frame= 5274 fps=341 q=-0.0 size=N/A time=00:03:39.96 bitrate=N/A speed=14.2x    frame= 5468 fps=342 q=-0.0 size=N/A time=00:03:48.06 bitrate=N/A speed=14.3x    frame= 5670 fps=344 q=-0.0 size=N/A time=00:03:56.48 bitrate=N/A speed=14.3x    frame= 5871 fps=345 q=-0.0 size=N/A time=00:04:04.86 bitrate=N/A speed=14.4x    frame= 6067 fps=346 q=-0.0 size=N/A time=00:04:13.04 bitrate=N/A speed=14.4x    frame= 6261 fps=347 q=-0.0 size=N/A time=00:04:21.13 bitrate=N/A speed=14.5x    frame= 6465 fps=348 q=-0.0 size=N/A time=00:04:29.64 bitrate=N/A speed=14.5x    frame= 6666 fps=349 q=-0.0 size=N/A time=00:04:38.02 bitrate=N/A speed=14.6x    frame= 6859 fps=350 q=-0.0 size=N/A time=00:04:46.07 bitrate=N/A speed=14.6x    frame= 7057 fps=351 q=-0.0 size=N/A time=00:04:54.33 bitrate=N/A speed=14.6x    frame= 7254 fps=352 q=-0.0 size=N/A time=00:05:02.55 bitrate=N/A speed=14.7x    frame= 7442 fps=352 q=-0.0 size=N/A time=00:05:10.39 bitrate=N/A speed=14.7x    frame= 7640 fps=353 q=-0.0 size=N/A time=00:05:18.65 bitrate=N/A speed=14.7x    frame= 7827 fps=353 q=-0.0 size=N/A time=00:05:26.45 bitrate=N/A speed=14.7x    frame= 8022 fps=354 q=-0.0 size=N/A time=00:05:34.58 bitrate=N/A speed=14.8x    frame= 8221 fps=355 q=-0.0 size=N/A time=00:05:42.88 bitrate=N/A speed=14.8x    frame= 8419 fps=355 q=-0.0 size=N/A time=00:05:51.14 bitrate=N/A speed=14.8x    frame= 8615 fps=356 q=-0.0 size=N/A time=00:05:59.31 bitrate=N/A speed=14.8x    frame= 8808 fps=356 q=-0.0 size=N/A time=00:06:07.36 bitrate=N/A speed=14.8x    frame= 9005 fps=357 q=-0.0 size=N/A time=00:06:15.58 bitrate=N/A speed=14.9x    frame= 9208 fps=357 q=-0.0 size=N/A time=00:06:24.05 bitrate=N/A speed=14.9x    frame= 9401 fps=358 q=-0.0 size=N/A time=00:06:32.10 bitrate=N/A speed=14.9x    frame= 9597 fps=358 q=-0.0 size=N/A time=00:06:40.27 bitrate=N/A speed=14.9x    frame= 9793 fps=359 q=-0.0 size=N/A time=00:06:48.44 bitrate=N/A speed=  15x    frame= 9991 fps=359 q=-0.0 size=N/A time=00:06:56.70 bitrate=N/A speed=  15x    frame=10184 fps=359 q=-0.0 size=N/A time=00:07:04.75 bitrate=N/A speed=  15x    frame=10373 fps=359 q=-0.0 size=N/A time=00:07:12.64 bitrate=N/A speed=  15x    frame=10568 fps=360 q=-0.0 size=N/A time=00:07:20.77 bitrate=N/A speed=  15x    frame=10769 fps=360 q=-0.0 size=N/A time=00:07:29.15 bitrate=N/A speed=  15x    frame=10960 fps=360 q=-0.0 size=N/A time=00:07:37.12 bitrate=N/A speed=  15x    frame=11148 fps=360 q=-0.0 size=N/A time=00:07:44.96 bitrate=N/A speed=  15x    frame=11348 fps=361 q=-0.0 size=N/A time=00:07:53.30 bitrate=N/A speed=  15x    frame=11546 fps=361 q=-0.0 size=N/A time=00:08:01.56 bitrate=N/A speed=15.1x    frame=11728 fps=361 q=-0.0 size=N/A time=00:08:09.15 bitrate=N/A speed=15.1x    frame=11923 fps=361 q=-0.0 size=N/A time=00:08:17.28 bitrate=N/A speed=15.1x    frame=12128 fps=362 q=-0.0 size=N/A time=00:08:25.83 bitrate=N/A speed=15.1x    frame=12324 fps=362 q=-0.0 size=N/A time=00:08:34.01 bitrate=N/A speed=15.1x    frame=12515 fps=362 q=-0.0 size=N/A time=00:08:41.97 bitrate=N/A speed=15.1x    frame=12714 fps=363 q=-0.0 size=N/A time=00:08:50.27 bitrate=N/A speed=15.1x    frame=12912 fps=363 q=-0.0 size=N/A time=00:08:58.53 bitrate=N/A speed=15.1x    frame=13113 fps=363 q=-0.0 size=N/A time=00:09:06.92 bitrate=N/A speed=15.1x    frame=13309 fps=363 q=-0.0 size=N/A time=00:09:15.09 bitrate=N/A speed=15.2x    frame=13497 fps=363 q=-0.0 size=N/A time=00:09:22.93 bitrate=N/A speed=15.2x    frame=13695 fps=364 q=-0.0 size=N/A time=00:09:31.19 bitrate=N/A speed=15.2x    frame=13894 fps=364 q=-0.0 size=N/A time=00:09:39.49 bitrate=N/A speed=15.2x    frame=14077 fps=364 q=-0.0 size=N/A time=00:09:47.12 bitrate=N/A speed=15.2x    frame=14262 fps=364 q=-0.0 size=N/A time=00:09:54.84 bitrate=N/A speed=15.2x    frame=14456 fps=364 q=-0.0 size=N/A time=00:10:02.93 bitrate=N/A speed=15.2x    frame=14656 fps=364 q=-0.0 size=N/A time=00:10:11.27 bitrate=N/A speed=15.2x    frame=14852 fps=364 q=-0.0 size=N/A time=00:10:19.45 bitrate=N/A speed=15.2x    frame=15043 fps=364 q=-0.0 size=N/A time=00:10:27.41 bitrate=N/A speed=15.2x    frame=15204 fps=364 q=-0.0 size=N/A time=00:10:34.13 bitrate=N/A speed=15.2x    frame=15393 fps=364 q=-0.0 size=N/A time=00:10:42.01 bitrate=N/A speed=15.2x    frame=15595 fps=364 q=-0.0 size=N/A time=00:10:50.44 bitrate=N/A speed=15.2x    frame=15792 fps=364 q=-0.0 size=N/A time=00:10:58.65 bitrate=N/A speed=15.2x    frame=15997 fps=365 q=-0.0 size=N/A time=00:11:07.20 bitrate=N/A speed=15.2x    frame=16191 fps=365 q=-0.0 size=N/A time=00:11:15.29 bitrate=N/A speed=15.2x    frame=16389 fps=365 q=-0.0 size=N/A time=00:11:23.55 bitrate=N/A speed=15.2x    frame=16578 fps=365 q=-0.0 size=N/A time=00:11:31.44 bitrate=N/A speed=15.2x    frame=16778 fps=365 q=-0.0 size=N/A time=00:11:39.78 bitrate=N/A speed=15.2x    frame=16979 fps=366 q=-0.0 size=N/A time=00:11:48.16 bitrate=N/A speed=15.3x    frame=17176 fps=366 q=-0.0 size=N/A time=00:11:56.38 bitrate=N/A speed=15.3x    frame=17370 fps=366 q=-0.0 size=N/A time=00:12:04.47 bitrate=N/A speed=15.3x    frame=17565 fps=366 q=-0.0 size=N/A time=00:12:12.60 bitrate=N/A speed=15.3x    frame=17759 fps=366 q=-0.0 size=N/A time=00:12:20.69 bitrate=N/A speed=15.3x    frame=17957 fps=366 q=-0.0 size=N/A time=00:12:28.95 bitrate=N/A speed=15.3x    frame=18162 fps=367 q=-0.0 size=N/A time=00:12:37.50 bitrate=N/A speed=15.3x    frame=18342 fps=367 q=-0.0 size=N/A time=00:12:45.01 bitrate=N/A speed=15.3x    frame=18537 fps=367 q=-0.0 size=N/A time=00:12:53.14 bitrate=N/A speed=15.3x    frame=18737 fps=367 q=-0.0 size=N/A time=00:13:01.48 bitrate=N/A speed=15.3x    frame=18943 fps=367 q=-0.0 size=N/A time=00:13:10.08 bitrate=N/A speed=15.3x    frame=19137 fps=367 q=-0.0 size=N/A time=00:13:18.17 bitrate=N/A speed=15.3x    frame=19346 fps=368 q=-0.0 size=N/A time=00:13:26.88 bitrate=N/A speed=15.3x    frame=19544 fps=368 q=-0.0 size=N/A time=00:13:35.14 bitrate=N/A speed=15.3x    frame=19733 fps=368 q=-0.0 size=N/A time=00:13:43.03 bitrate=N/A speed=15.3x    frame=19933 fps=368 q=-0.0 size=N/A time=00:13:51.37 bitrate=N/A speed=15.3x    frame=20134 fps=368 q=-0.0 size=N/A time=00:13:59.75 bitrate=N/A speed=15.4x    frame=20336 fps=368 q=-0.0 size=N/A time=00:14:08.18 bitrate=N/A speed=15.4x    frame=20524 fps=368 q=-0.0 size=N/A time=00:14:16.02 bitrate=N/A speed=15.4x    frame=20707 fps=368 q=-0.0 size=N/A time=00:14:23.65 bitrate=N/A speed=15.4x    frame=20903 fps=368 q=-0.0 size=N/A time=00:14:31.82 bitrate=N/A speed=15.4x    frame=21101 fps=368 q=-0.0 size=N/A time=00:14:40.08 bitrate=N/A speed=15.4x    frame=21294 fps=368 q=-0.0 size=N/A time=00:14:48.13 bitrate=N/A speed=15.4x    frame=21491 fps=369 q=-0.0 size=N/A time=00:14:56.35 bitrate=N/A speed=15.4x    frame=21690 fps=369 q=-0.0 size=N/A time=00:15:04.65 bitrate=N/A speed=15.4x    frame=21894 fps=369 q=-0.0 size=N/A time=00:15:13.16 bitrate=N/A speed=15.4x    frame=22094 fps=369 q=-0.0 size=N/A time=00:15:21.50 bitrate=N/A speed=15.4x    frame=22288 fps=369 q=-0.0 size=N/A time=00:15:29.59 bitrate=N/A speed=15.4x    frame=22485 fps=369 q=-0.0 size=N/A time=00:15:37.81 bitrate=N/A speed=15.4x    frame=22691 fps=370 q=-0.0 size=N/A time=00:15:46.40 bitrate=N/A speed=15.4x    frame=22888 fps=370 q=-0.0 size=N/A time=00:15:54.62 bitrate=N/A speed=15.4x    frame=23083 fps=370 q=-0.0 size=N/A time=00:16:02.75 bitrate=N/A speed=15.4x    frame=23276 fps=370 q=-0.0 size=N/A time=00:16:10.80 bitrate=N/A speed=15.4x    frame=23483 fps=370 q=-0.0 size=N/A time=00:16:19.43 bitrate=N/A speed=15.4x    frame=23688 fps=370 q=-0.0 size=N/A time=00:16:27.98 bitrate=N/A speed=15.4x    frame=23884 fps=370 q=-0.0 size=N/A time=00:16:36.16 bitrate=N/A speed=15.4x    frame=24083 fps=370 q=-0.0 size=N/A time=00:16:44.46 bitrate=N/A speed=15.4x    frame=24279 fps=370 q=-0.0 size=N/A time=00:16:52.63 bitrate=N/A speed=15.4x    frame=24479 fps=370 q=-0.0 size=N/A time=00:17:00.97 bitrate=N/A speed=15.5x    frame=24675 fps=371 q=-0.0 size=N/A time=00:17:09.15 bitrate=N/A speed=15.5x    frame=24875 fps=371 q=-0.0 size=N/A time=00:17:17.49 bitrate=N/A speed=15.5x    frame=25073 fps=371 q=-0.0 size=N/A time=00:17:25.75 bitrate=N/A speed=15.5x    frame=25279 fps=371 q=-0.0 size=N/A time=00:17:34.34 bitrate=N/A speed=15.5x    frame=25472 fps=371 q=-0.0 size=N/A time=00:17:42.39 bitrate=N/A speed=15.5x    frame=25670 fps=371 q=-0.0 size=N/A time=00:17:50.65 bitrate=N/A speed=15.5x    frame=25867 fps=371 q=-0.0 size=N/A time=00:17:58.86 bitrate=N/A speed=15.5x    frame=26065 fps=371 q=-0.0 size=N/A time=00:18:07.12 bitrate=N/A speed=15.5x    frame=26263 fps=371 q=-0.0 size=N/A time=00:18:15.38 bitrate=N/A speed=15.5x    frame=26456 fps=371 q=-0.0 size=N/A time=00:18:23.43 bitrate=N/A speed=15.5x    frame=26664 fps=372 q=-0.0 size=N/A time=00:18:32.11 bitrate=N/A speed=15.5x    frame=26858 fps=372 q=-0.0 size=N/A time=00:18:40.20 bitrate=N/A speed=15.5x    frame=27039 fps=372 q=-0.0 size=N/A time=00:18:47.75 bitrate=N/A speed=15.5x    frame=27229 fps=371 q=-0.0 size=N/A time=00:18:55.67 bitrate=N/A speed=15.5x    frame=27418 fps=371 q=-0.0 size=N/A time=00:19:03.55 bitrate=N/A speed=15.5x    frame=27612 fps=372 q=-0.0 size=N/A time=00:19:11.65 bitrate=N/A speed=15.5x    frame=27799 fps=371 q=-0.0 size=N/A time=00:19:19.44 bitrate=N/A speed=15.5x    frame=27994 fps=371 q=-0.0 size=N/A time=00:19:27.58 bitrate=N/A speed=15.5x    frame=28191 fps=372 q=-0.0 size=N/A time=00:19:35.79 bitrate=N/A speed=15.5x    frame=28382 fps=372 q=-0.0 size=N/A time=00:19:43.76 bitrate=N/A speed=15.5x    frame=28578 fps=372 q=-0.0 size=N/A time=00:19:51.94 bitrate=N/A speed=15.5x    frame=28764 fps=372 q=-0.0 size=N/A time=00:19:59.69 bitrate=N/A speed=15.5x    frame=28941 fps=371 q=-0.0 size=N/A time=00:20:07.08 bitrate=N/A speed=15.5x    frame=29123 fps=371 q=-0.0 size=N/A time=00:20:14.67 bitrate=N/A speed=15.5x    frame=29305 fps=371 q=-0.0 size=N/A time=00:20:22.26 bitrate=N/A speed=15.5x    frame=29486 fps=371 q=-0.0 size=N/A time=00:20:29.81 bitrate=N/A speed=15.5x    frame=29668 fps=371 q=-0.0 size=N/A time=00:20:37.40 bitrate=N/A speed=15.5x    frame=29845 fps=371 q=-0.0 size=N/A time=00:20:44.78 bitrate=N/A speed=15.5x    frame=30018 fps=370 q=-0.0 size=N/A time=00:20:52.00 bitrate=N/A speed=15.5x    frame=30206 fps=370 q=-0.0 size=N/A time=00:20:59.84 bitrate=N/A speed=15.4x    frame=30400 fps=370 q=-0.0 size=N/A time=00:21:07.93 bitrate=N/A speed=15.4x    frame=30590 fps=370 q=-0.0 size=N/A time=00:21:15.85 bitrate=N/A speed=15.4x    frame=30784 fps=370 q=-0.0 size=N/A time=00:21:23.94 bitrate=N/A speed=15.5x    frame=30988 fps=371 q=-0.0 size=N/A time=00:21:32.45 bitrate=N/A speed=15.5x    frame=31182 fps=371 q=-0.0 size=N/A time=00:21:40.54 bitrate=N/A speed=15.5x    frame=31376 fps=371 q=-0.0 size=N/A time=00:21:48.64 bitrate=N/A speed=15.5x    frame=31567 fps=371 q=-0.0 size=N/A time=00:21:56.60 bitrate=N/A speed=15.5x    frame=31763 fps=371 q=-0.0 size=N/A time=00:22:04.78 bitrate=N/A speed=15.5x    frame=31941 fps=371 q=-0.0 size=N/A time=00:22:12.20 bitrate=N/A speed=15.5x    frame=32131 fps=371 q=-0.0 size=N/A time=00:22:20.13 bitrate=N/A speed=15.5x    frame=32319 fps=371 q=-0.0 size=N/A time=00:22:27.97 bitrate=N/A speed=15.5x    frame=32525 fps=371 q=-0.0 size=N/A time=00:22:36.56 bitrate=N/A speed=15.5x    frame=32687 fps=370 q=-0.0 size=N/A time=00:22:43.32 bitrate=N/A speed=15.4x    frame=32837 fps=370 q=-0.0 size=N/A time=00:22:49.57 bitrate=N/A speed=15.4x    frame=33020 fps=370 q=-0.0 size=N/A time=00:22:57.20 bitrate=N/A speed=15.4x    frame=33213 fps=370 q=-0.0 size=N/A time=00:23:05.25 bitrate=N/A speed=15.4x    frame=33390 fps=370 q=-0.0 size=N/A time=00:23:12.64 bitrate=N/A speed=15.4x    frame=33547 fps=369 q=-0.0 size=N/A time=00:23:19.18 bitrate=N/A speed=15.4x    frame=33692 fps=369 q=-0.0 size=N/A time=00:23:25.23 bitrate=N/A speed=15.4x    frame=33816 fps=368 q=-0.0 size=N/A time=00:23:30.40 bitrate=N/A speed=15.4x    frame=33945 fps=367 q=-0.0 size=N/A time=00:23:35.78 bitrate=N/A speed=15.3x    frame=34109 fps=367 q=-0.0 size=N/A time=00:23:42.62 bitrate=N/A speed=15.3x    frame=34258 fps=367 q=-0.0 size=N/A time=00:23:48.84 bitrate=N/A speed=15.3x    frame=34388 fps=366 q=-0.0 size=N/A time=00:23:54.26 bitrate=N/A speed=15.3x    frame=34547 fps=366 q=-0.0 size=N/A time=00:24:00.89 bitrate=N/A speed=15.3x    [Parsed_psnr_16 @ 00000114663eaa00] PSNR y:48.338850 u:49.928879 v:50.032038 average:48.820163 min:32.404624 max:inf
[out#0/null @ 0000011458f41d00] video:14903KiB audio:271276KiB subtitle:0KiB other streams:0KiB global headers:0KiB muxing overhead: unknown
frame=34683 fps=366 q=-0.0 Lsize=N/A time=00:24:06.57 bitrate=N/A speed=15.3x    
